<svg width="87" height="80" viewBox="0 0 87 80" fill="none" xmlns="http://www.w3.org/2000/svg">
<path d="M44.0005 4.5C15.5006 4.50008 3.5 24 5.00053 38.0098C6 49 12.0005 66.1102 44.0005 68.5102C52.8836 69.1764 53.973 68.0304 60.7312 67.2187C60.905 67.1978 61.0852 67.2233 61.2459 67.2925L81.3937 75.9642C81.434 75.9815 81.4755 75.9422 81.4604 75.901L74.7311 57.6267C74.5914 57.2473 74.6968 56.8201 74.9889 56.5407C81.8494 49.9779 83.0004 43.9408 83.0004 38.0098C81.5004 21.0102 72.4118 4.49992 44.0005 4.5Z" stroke="#7BA5DE" stroke-width="8"/>
<path d="M41 26H25.5V40C25.5 47.2 34.1667 51 38.5 52L40 48.5C36.4 47.3 34.5 42.3333 34 40H41V26Z" fill="#7BA5DE"/>
<path d="M61.5 26H46V40C46 47.2 54.6667 51 59 52L60.5 48.5C56.9 47.3 55 42.3333 54.5 40H61.5V26Z" fill="#7BA5DE"/>
</svg>
